<svg xmlns="http://www.w3.org/2000/svg" viewBox="0 0 1024 1024"><rect width="1024" height="1024" fill="#154273" rx="200"/><path fill="#fff" d="M541.752 718v-13.3c27.3-7.7 40.6-21.7 40.6-53.2V307.8l-44.1-14v-15.4c44.1-7.7 84-10.5 139.3-10.5 105.7 0 156.1 41.3 156.1 118.3 0 69.3-38.5 114.8-100.8 133.7l98.7 132.3c16.8 22.4 39.9 39.2 65.1 47.6v13.3c-13.3 9.1-30.8 15.4-53.2 15.4-30.1 0-49.7-11.9-74.9-49.7l-92.4-140h-32.9v147.7l44.1 11.2v15.4c-23.1 7-49 11.9-79.8 11.9-24.5 0-45.5-2.1-65.8-7m101.5-212.8h27.3c54.6 0 99.4-35.7 99.4-108.5 0-57.4-36.4-90.3-96.6-90.3-9.1 0-21 1.4-30.1 2.8zM180.952 724V264.8h120.4q77 0 116.9 33.6 40.6 33.6 40.6 90.3 0 32.2-11.2 58.1-10.5 25.9-30.1 44.1t-47.6 28.7l121.8 204.4h-64.4l-112-191.8h-79.1V724zm55.3-238.7h64.4q46.2 0 73.5-21.7t27.3-67.2q0-41.3-25.2-63t-78.4-21.7h-61.6z"/></svg>
